<?xml version="1.0" encoding="UTF-8" standalone="no"?>
<!-- Created with Inkscape (http://www.inkscape.org/) -->

<svg
   xmlns:dc="http://purl.org/dc/elements/1.1/"
   xmlns:cc="http://creativecommons.org/ns#"
   xmlns:rdf="http://www.w3.org/1999/02/22-rdf-syntax-ns#"
   xmlns:svg="http://www.w3.org/2000/svg"
   xmlns="http://www.w3.org/2000/svg"
   xmlns:sodipodi="http://sodipodi.sourceforge.net/DTD/sodipodi-0.dtd"
   xmlns:inkscape="http://www.inkscape.org/namespaces/inkscape"
   version="1.1"
   id="svg2"
   width="32"
   height="36.088524"
   viewBox="0 0 32.000001 36.088524"
   sodipodi:docname="password.svg"
   inkscape:version="0.92.4 (5da689c313, 2019-01-14)">
  <metadata
     id="metadata8">
    <rdf:RDF>
      <cc:Work
         rdf:about="">
        <dc:format>image/svg+xml</dc:format>
        <dc:type
           rdf:resource="http://purl.org/dc/dcmitype/StillImage" />
        <dc:title></dc:title>
      </cc:Work>
    </rdf:RDF>
  </metadata>
  <defs
     id="defs6" />
  <sodipodi:namedview
     pagecolor="#ffffff"
     bordercolor="#666666"
     borderopacity="1"
     objecttolerance="10"
     gridtolerance="10"
     guidetolerance="10"
     inkscape:pageopacity="0"
     inkscape:pageshadow="2"
     inkscape:window-width="1530"
     inkscape:window-height="836"
     id="namedview4"
     showgrid="false"
     scale-x="0.4"
     fit-margin-top="0"
     fit-margin-left="-1.1"
     fit-margin-right="0"
     fit-margin-bottom="0"
     inkscape:zoom="27.348412"
     inkscape:cx="8.5680733"
     inkscape:cy="10.46253"
     inkscape:window-x="70"
     inkscape:window-y="27"
     inkscape:window-maximized="1"
     inkscape:current-layer="svg2" />
  <path
     style="fill:#4d4d4d;stroke-width:0.1135567"
     d="M 0.91097654,35.890024 C 0.69362564,35.780876 0.39979774,35.517839 0.25802544,35.305626 L 2.5973695e-4,34.919777 V 25.57725 c 0,-12.462224 -0.0346629969,-11.846998 0.69688160305,-12.368752 C 1.0431089,12.961743 1.213649,12.911621 2.5133241,12.898969 l 3.8148113,-0.03714 0.055421,-2.461105 C 6.4342727,8.1485382 6.464896,7.8532209 6.7443036,6.9218363 7.5527626,4.2268912 9.2810354,2.1672279 11.749223,0.9572373 13.408991,0.1435582 14.047606,0 16.0076,0 c 1.888278,0 2.549252,0.1386424 4.08782,0.8573976 2.852234,1.3324692 4.845148,3.9521417 5.391937,7.0876643 0.109564,0.6283068 0.172563,1.7062491 0.172563,2.9528881 v 1.963335 l 3.837681,0.03737 c 1.390943,0.01354 1.476013,0.05178 1.87002,0.352676 0.25765,0.19674 0.458971,0.474239 0.535481,0.738121 0.08515,0.293675 0.11229,3.880536 0.08883,11.741839 -0.03354,11.243056 -0.03535,9.321126 -0.268958,9.639558 -0.129352,0.176314 -0.410405,0.409928 -0.624562,0.519123 -0.363618,0.18542 -3.584963,0.198549 -15.090815,0.198549 -11.5036355,0 -14.7276511,-0.01321 -15.09662296,-0.198549 z M 28.721796,25.484136 V 16.17248 H 16.0076 3.2934041 v 9.311656 7.311644 H 16.0076 28.721796 Z M 22.341202,10.636591 C 22.280379,8.136576 22.147054,7.5249688 21.390833,6.2769967 20.920261,5.5004422 19.786087,4.4194647 18.992367,3.9910397 18.266227,3.5990963 16.839152,3.2263878 16.074603,3.2289945 13.347007,3.2385166 10.886613,5.0260728 9.9823707,7.6557316 9.763438,8.2924178 9.7210609,8.7020485 9.6739973,10.636591 l -0.054562,2.24275 H 16.0076 22.395764 Z"
     id="path12"
     inkscape:connector-curvature="0"
     sodipodi:nodetypes="cccssscssssssscsscsccsccscccccccsssssscccss" />
  <rect
     style="fill:#4d4d4d;fill-opacity:1;stroke:#000000;stroke-width:0.09540432"
     id="rect16"
     width="5.4817848"
     height="2.7408924"
     x="13.037874"
     y="23.888472" />
</svg>
